<svg width="538" height="230" viewBox="0 0 538 230" fill="none" xmlns="http://www.w3.org/2000/svg">
<path d="M33 217V68H505V217" stroke="black" stroke-width="2"/>
<path d="M1 229L12.1667 218C18.3608 211.898 28.3058 211.898 34.5 218V218C40.6942 224.102 50.6392 224.102 56.8333 218V218C63.0275 211.898 72.9725 211.898 79.1667 218V218C85.3608 224.102 95.3058 224.102 101.5 218V218C107.694 211.898 117.639 211.898 123.833 218V218C130.027 224.102 139.973 224.102 146.167 218V218C152.361 211.898 162.306 211.898 168.5 218V218C174.694 224.102 184.639 224.102 190.833 218V218C197.027 211.898 206.973 211.898 213.167 218V218C219.361 224.102 229.306 224.102 235.5 218V218C241.694 211.898 251.639 211.898 257.833 218V218C264.027 224.102 273.973 224.102 280.167 218V218C286.361 211.898 296.306 211.898 302.5 218V218C308.694 224.102 318.639 224.102 324.833 218V218C331.027 211.898 340.973 211.898 347.167 218V218C353.361 224.102 363.306 224.102 369.5 218V218C375.694 211.898 385.639 211.898 391.833 218V218C398.027 224.102 407.973 224.102 414.167 218V218C420.361 211.898 430.306 211.898 436.5 218V218C442.694 224.102 452.639 224.102 458.833 218V218C465.027 211.898 474.973 211.898 481.167 218V218C487.361 224.102 497.306 224.102 503.5 218V218C509.694 211.898 519.639 211.898 525.833 218L537 229" stroke="black"/>
<path d="M505 28V46" stroke="black" stroke-width="2"/>
<path d="M33 28V46" stroke="black" stroke-width="2"/>
<path d="M432.5 37L505 37" stroke="black" stroke-width="2"/>
<path d="M33 37L105.5 37" stroke="black" stroke-width="2"/>
<path d="M33 77H505" stroke="black" stroke-dasharray="4 4"/>
<path d="M259.777 6.46875V15H258.641L254.346 8.41992V15H253.215V6.46875H254.346L258.658 13.0664V6.46875H259.777ZM268.35 10.4648V11.0039C268.35 11.6445 268.27 12.2188 268.109 12.7266C267.949 13.2344 267.719 13.666 267.418 14.0215C267.117 14.377 266.756 14.6484 266.334 14.8359C265.916 15.0234 265.447 15.1172 264.928 15.1172C264.424 15.1172 263.961 15.0234 263.539 14.8359C263.121 14.6484 262.758 14.377 262.449 14.0215C262.145 13.666 261.908 13.2344 261.74 12.7266C261.572 12.2188 261.488 11.6445 261.488 11.0039V10.4648C261.488 9.82422 261.57 9.25195 261.734 8.74805C261.902 8.24023 262.139 7.80859 262.443 7.45312C262.748 7.09375 263.109 6.82031 263.527 6.63281C263.949 6.44531 264.412 6.35156 264.916 6.35156C265.436 6.35156 265.904 6.44531 266.322 6.63281C266.744 6.82031 267.105 7.09375 267.406 7.45312C267.711 7.80859 267.943 8.24023 268.104 8.74805C268.268 9.25195 268.35 9.82422 268.35 10.4648ZM267.23 11.0039V10.4531C267.23 9.94531 267.178 9.49609 267.072 9.10547C266.971 8.71484 266.82 8.38672 266.621 8.12109C266.422 7.85547 266.178 7.6543 265.889 7.51758C265.604 7.38086 265.279 7.3125 264.916 7.3125C264.564 7.3125 264.246 7.38086 263.961 7.51758C263.68 7.6543 263.438 7.85547 263.234 8.12109C263.035 8.38672 262.881 8.71484 262.771 9.10547C262.662 9.49609 262.607 9.94531 262.607 10.4531V11.0039C262.607 11.5156 262.662 11.9688 262.771 12.3633C262.881 12.7539 263.037 13.084 263.24 13.3535C263.447 13.6191 263.691 13.8203 263.973 13.957C264.258 14.0938 264.576 14.1621 264.928 14.1621C265.295 14.1621 265.621 14.0938 265.906 13.957C266.191 13.8203 266.432 13.6191 266.627 13.3535C266.826 13.084 266.977 12.7539 267.078 12.3633C267.18 11.9688 267.23 11.5156 267.23 11.0039ZM273.031 6.46875V15H271.918V6.46875H273.031ZM275.773 6.46875V7.39453H269.182V6.46875H275.773ZM282.459 14.0801V15H277.941V14.0801H282.459ZM278.17 6.46875V15H277.039V6.46875H278.17ZM281.861 10.1367V11.0566H277.941V10.1367H281.861ZM282.4 6.46875V7.39453H277.941V6.46875H282.4ZM283.648 14.4258C283.648 14.2422 283.705 14.0879 283.818 13.9629C283.936 13.834 284.104 13.7695 284.322 13.7695C284.541 13.7695 284.707 13.834 284.82 13.9629C284.938 14.0879 284.996 14.2422 284.996 14.4258C284.996 14.6055 284.938 14.7578 284.82 14.8828C284.707 15.0078 284.541 15.0703 284.322 15.0703C284.104 15.0703 283.936 15.0078 283.818 14.8828C283.705 14.7578 283.648 14.6055 283.648 14.4258ZM283.654 9.25195C283.654 9.06836 283.711 8.91406 283.824 8.78906C283.941 8.66016 284.109 8.5957 284.328 8.5957C284.547 8.5957 284.713 8.66016 284.826 8.78906C284.943 8.91406 285.002 9.06836 285.002 9.25195C285.002 9.43164 284.943 9.58398 284.826 9.70898C284.713 9.83398 284.547 9.89648 284.328 9.89648C284.109 9.89648 283.941 9.83398 283.824 9.70898C283.711 9.58398 283.654 9.43164 283.654 9.25195Z" fill="black"/>
<path d="M137.203 40H135.422L135.434 39.0801H137.203C137.812 39.0801 138.32 38.9531 138.727 38.6992C139.133 38.4414 139.438 38.082 139.641 37.6211C139.848 37.1562 139.951 36.6133 139.951 35.9922V35.4707C139.951 34.9824 139.893 34.5488 139.775 34.1699C139.658 33.7871 139.486 33.4648 139.26 33.2031C139.033 32.9375 138.756 32.7363 138.428 32.5996C138.104 32.4629 137.73 32.3945 137.309 32.3945H135.387V31.4688H137.309C137.867 31.4688 138.377 31.5625 138.838 31.75C139.299 31.9336 139.695 32.2012 140.027 32.5527C140.363 32.9004 140.621 33.3223 140.801 33.8184C140.98 34.3105 141.07 34.8652 141.07 35.4824V35.9922C141.07 36.6094 140.98 37.166 140.801 37.6621C140.621 38.1543 140.361 38.5742 140.021 38.9219C139.686 39.2695 139.279 39.5371 138.803 39.7246C138.33 39.9082 137.797 40 137.203 40ZM136.025 31.4688V40H134.895V31.4688H136.025ZM147.65 31.4688H148.775V37.2402C148.775 37.8809 148.633 38.4141 148.348 38.8398C148.062 39.2656 147.684 39.5859 147.211 39.8008C146.742 40.0117 146.232 40.1172 145.682 40.1172C145.104 40.1172 144.58 40.0117 144.111 39.8008C143.646 39.5859 143.277 39.2656 143.004 38.8398C142.734 38.4141 142.6 37.8809 142.6 37.2402V31.4688H143.719V37.2402C143.719 37.6855 143.801 38.0527 143.965 38.3418C144.129 38.6309 144.357 38.8457 144.65 38.9863C144.947 39.127 145.291 39.1973 145.682 39.1973C146.076 39.1973 146.42 39.127 146.713 38.9863C147.01 38.8457 147.24 38.6309 147.404 38.3418C147.568 38.0527 147.65 37.6855 147.65 37.2402V31.4688ZM153.697 36.6543H151.418V35.7344H153.697C154.139 35.7344 154.496 35.6641 154.77 35.5234C155.043 35.3828 155.242 35.1875 155.367 34.9375C155.496 34.6875 155.561 34.4023 155.561 34.082C155.561 33.7891 155.496 33.5137 155.367 33.2559C155.242 32.998 155.043 32.791 154.77 32.6348C154.496 32.4746 154.139 32.3945 153.697 32.3945H151.682V40H150.551V31.4688H153.697C154.342 31.4688 154.887 31.5801 155.332 31.8027C155.777 32.0254 156.115 32.334 156.346 32.7285C156.576 33.1191 156.691 33.5664 156.691 34.0703C156.691 34.6172 156.576 35.084 156.346 35.4707C156.115 35.8574 155.777 36.1523 155.332 36.3555C154.887 36.5547 154.342 36.6543 153.697 36.6543ZM163.295 39.0801V40H159.029V39.0801H163.295ZM159.252 31.4688V40H158.121V31.4688H159.252ZM165.803 31.4688V40H164.672V31.4688H165.803ZM173.01 37.2871H174.135C174.076 37.8262 173.922 38.3086 173.672 38.7344C173.422 39.1602 173.068 39.498 172.611 39.748C172.154 39.9941 171.584 40.1172 170.9 40.1172C170.4 40.1172 169.945 40.0234 169.535 39.8359C169.129 39.6484 168.779 39.3828 168.486 39.0391C168.193 38.6914 167.967 38.2754 167.807 37.791C167.65 37.3027 167.572 36.7598 167.572 36.1621V35.3125C167.572 34.7148 167.65 34.1738 167.807 33.6895C167.967 33.2012 168.195 32.7832 168.492 32.4355C168.793 32.0879 169.154 31.8203 169.576 31.6328C169.998 31.4453 170.473 31.3516 171 31.3516C171.645 31.3516 172.189 31.4727 172.635 31.7148C173.08 31.957 173.426 32.293 173.672 32.7227C173.922 33.1484 174.076 33.6426 174.135 34.2051H173.01C172.955 33.8066 172.854 33.4648 172.705 33.1797C172.557 32.8906 172.346 32.668 172.072 32.5117C171.799 32.3555 171.441 32.2773 171 32.2773C170.621 32.2773 170.287 32.3496 169.998 32.4941C169.713 32.6387 169.473 32.8438 169.277 33.1094C169.086 33.375 168.941 33.6934 168.844 34.0645C168.746 34.4355 168.697 34.8477 168.697 35.3008V36.1621C168.697 36.5801 168.74 36.9727 168.826 37.3398C168.916 37.707 169.051 38.0293 169.23 38.3066C169.41 38.584 169.639 38.8027 169.916 38.9629C170.193 39.1191 170.521 39.1973 170.9 39.1973C171.381 39.1973 171.764 39.1211 172.049 38.9688C172.334 38.8164 172.549 38.5977 172.693 38.3125C172.842 38.0273 172.947 37.6855 173.01 37.2871ZM178.834 32.2246L176.01 40H174.855L178.107 31.4688H178.852L178.834 32.2246ZM181.201 40L178.371 32.2246L178.354 31.4688H179.098L182.361 40H181.201ZM181.055 36.8418V37.7676H176.262V36.8418H181.055ZM185.895 31.4688V40H184.781V31.4688H185.895ZM188.637 31.4688V32.3945H182.045V31.4688H188.637ZM191.115 31.4688V40H189.984V31.4688H191.115ZM199.74 35.4648V36.0039C199.74 36.6445 199.66 37.2188 199.5 37.7266C199.34 38.2344 199.109 38.666 198.809 39.0215C198.508 39.377 198.146 39.6484 197.725 39.8359C197.307 40.0234 196.838 40.1172 196.318 40.1172C195.814 40.1172 195.352 40.0234 194.93 39.8359C194.512 39.6484 194.148 39.377 193.84 39.0215C193.535 38.666 193.299 38.2344 193.131 37.7266C192.963 37.2188 192.879 36.6445 192.879 36.0039V35.4648C192.879 34.8242 192.961 34.252 193.125 33.748C193.293 33.2402 193.529 32.8086 193.834 32.4531C194.139 32.0938 194.5 31.8203 194.918 31.6328C195.34 31.4453 195.803 31.3516 196.307 31.3516C196.826 31.3516 197.295 31.4453 197.713 31.6328C198.135 31.8203 198.496 32.0938 198.797 32.4531C199.102 32.8086 199.334 33.2402 199.494 33.748C199.658 34.252 199.74 34.8242 199.74 35.4648ZM198.621 36.0039V35.4531C198.621 34.9453 198.568 34.4961 198.463 34.1055C198.361 33.7148 198.211 33.3867 198.012 33.1211C197.812 32.8555 197.568 32.6543 197.279 32.5176C196.994 32.3809 196.67 32.3125 196.307 32.3125C195.955 32.3125 195.637 32.3809 195.352 32.5176C195.07 32.6543 194.828 32.8555 194.625 33.1211C194.426 33.3867 194.271 33.7148 194.162 34.1055C194.053 34.4961 193.998 34.9453 193.998 35.4531V36.0039C193.998 36.5156 194.053 36.9688 194.162 37.3633C194.271 37.7539 194.428 38.084 194.631 38.3535C194.838 38.6191 195.082 38.8203 195.363 38.957C195.648 39.0938 195.967 39.1621 196.318 39.1621C196.686 39.1621 197.012 39.0938 197.297 38.957C197.582 38.8203 197.822 38.6191 198.018 38.3535C198.217 38.084 198.367 37.7539 198.469 37.3633C198.57 36.9688 198.621 36.5156 198.621 36.0039ZM207.996 31.4688V40H206.859L202.564 33.4199V40H201.434V31.4688H202.564L206.877 38.0664V31.4688H207.996ZM219.545 35.4648V36.0039C219.545 36.6445 219.465 37.2188 219.305 37.7266C219.145 38.2344 218.914 38.666 218.613 39.0215C218.312 39.377 217.951 39.6484 217.529 39.8359C217.111 40.0234 216.643 40.1172 216.123 40.1172C215.619 40.1172 215.156 40.0234 214.734 39.8359C214.316 39.6484 213.953 39.377 213.645 39.0215C213.34 38.666 213.104 38.2344 212.936 37.7266C212.768 37.2188 212.684 36.6445 212.684 36.0039V35.4648C212.684 34.8242 212.766 34.252 212.93 33.748C213.098 33.2402 213.334 32.8086 213.639 32.4531C213.943 32.0938 214.305 31.8203 214.723 31.6328C215.145 31.4453 215.607 31.3516 216.111 31.3516C216.631 31.3516 217.1 31.4453 217.518 31.6328C217.939 31.8203 218.301 32.0938 218.602 32.4531C218.906 32.8086 219.139 33.2402 219.299 33.748C219.463 34.252 219.545 34.8242 219.545 35.4648ZM218.426 36.0039V35.4531C218.426 34.9453 218.373 34.4961 218.268 34.1055C218.166 33.7148 218.016 33.3867 217.816 33.1211C217.617 32.8555 217.373 32.6543 217.084 32.5176C216.799 32.3809 216.475 32.3125 216.111 32.3125C215.76 32.3125 215.441 32.3809 215.156 32.5176C214.875 32.6543 214.633 32.8555 214.43 33.1211C214.23 33.3867 214.076 33.7148 213.967 34.1055C213.857 34.4961 213.803 34.9453 213.803 35.4531V36.0039C213.803 36.5156 213.857 36.9688 213.967 37.3633C214.076 37.7539 214.232 38.084 214.436 38.3535C214.643 38.6191 214.887 38.8203 215.168 38.957C215.453 39.0938 215.771 39.1621 216.123 39.1621C216.49 39.1621 216.816 39.0938 217.102 38.957C217.387 38.8203 217.627 38.6191 217.822 38.3535C218.021 38.084 218.172 37.7539 218.273 37.3633C218.375 36.9688 218.426 36.5156 218.426 36.0039ZM222.369 31.4688V40H221.238V31.4688H222.369ZM225.943 35.3066V36.2324H222.123V35.3066H225.943ZM226.523 31.4688V32.3945H222.123V31.4688H226.523ZM231.205 31.4688H232.301L235.096 38.4238L237.885 31.4688H238.986L235.518 40H234.662L231.205 31.4688ZM230.848 31.4688H231.814L231.973 36.6719V40H230.848V31.4688ZM238.371 31.4688H239.338V40H238.213V36.6719L238.371 31.4688ZM244.588 32.2246L241.764 40H240.609L243.861 31.4688H244.605L244.588 32.2246ZM246.955 40L244.125 32.2246L244.107 31.4688H244.852L248.115 40H246.955ZM246.809 36.8418V37.7676H242.016V36.8418H246.809ZM251.648 31.4688V40H250.535V31.4688H251.648ZM254.391 31.4688V32.3945H247.799V31.4688H254.391ZM261.076 39.0801V40H256.559V39.0801H261.076ZM256.787 31.4688V40H255.656V31.4688H256.787ZM260.479 35.1367V36.0566H256.559V35.1367H260.479ZM261.018 31.4688V32.3945H256.559V31.4688H261.018ZM262.477 31.4688H265.301C265.941 31.4688 266.482 31.5664 266.924 31.7617C267.369 31.957 267.707 32.2461 267.938 32.6289C268.172 33.0078 268.289 33.4746 268.289 34.0293C268.289 34.4199 268.209 34.7773 268.049 35.1016C267.893 35.4219 267.666 35.6953 267.369 35.9219C267.076 36.1445 266.725 36.3105 266.314 36.4199L265.998 36.543H263.344L263.332 35.623H265.336C265.742 35.623 266.08 35.5527 266.35 35.4121C266.619 35.2676 266.822 35.0742 266.959 34.832C267.096 34.5898 267.164 34.3223 267.164 34.0293C267.164 33.7012 267.1 33.4141 266.971 33.168C266.842 32.9219 266.639 32.7324 266.361 32.5996C266.088 32.4629 265.734 32.3945 265.301 32.3945H263.607V40H262.477V31.4688ZM267.463 40L265.389 36.1328L266.566 36.127L268.67 39.9297V40H267.463ZM271.084 31.4688V40H269.953V31.4688H271.084ZM276.404 32.2246L273.58 40H272.426L275.678 31.4688H276.422L276.404 32.2246ZM278.771 40L275.941 32.2246L275.924 31.4688H276.668L279.932 40H278.771ZM278.625 36.8418V37.7676H273.832V36.8418H278.625ZM286.248 39.0801V40H281.982V39.0801H286.248ZM282.205 31.4688V40H281.074V31.4688H282.205ZM292.09 37.8438C292.09 37.6445 292.059 37.4688 291.996 37.3164C291.938 37.1602 291.832 37.0195 291.68 36.8945C291.531 36.7695 291.324 36.6504 291.059 36.5371C290.797 36.4238 290.465 36.3086 290.062 36.1914C289.641 36.0664 289.26 35.9277 288.92 35.7754C288.58 35.6191 288.289 35.4414 288.047 35.2422C287.805 35.043 287.619 34.8145 287.49 34.5566C287.361 34.2988 287.297 34.0039 287.297 33.6719C287.297 33.3398 287.365 33.0332 287.502 32.752C287.639 32.4707 287.834 32.2266 288.088 32.0195C288.346 31.8086 288.652 31.6445 289.008 31.5273C289.363 31.4102 289.76 31.3516 290.197 31.3516C290.838 31.3516 291.381 31.4746 291.826 31.7207C292.275 31.9629 292.617 32.2812 292.852 32.6758C293.086 33.0664 293.203 33.4844 293.203 33.9297H292.078C292.078 33.6094 292.01 33.3262 291.873 33.0801C291.736 32.8301 291.529 32.6348 291.252 32.4941C290.975 32.3496 290.623 32.2773 290.197 32.2773C289.795 32.2773 289.463 32.3379 289.201 32.459C288.939 32.5801 288.744 32.7441 288.615 32.9512C288.49 33.1582 288.428 33.3945 288.428 33.6602C288.428 33.8398 288.465 34.0039 288.539 34.1523C288.617 34.2969 288.736 34.4316 288.896 34.5566C289.061 34.6816 289.268 34.7969 289.518 34.9023C289.771 35.0078 290.074 35.1094 290.426 35.207C290.91 35.3438 291.328 35.4961 291.68 35.6641C292.031 35.832 292.32 36.0215 292.547 36.2324C292.777 36.4395 292.947 36.6758 293.057 36.9414C293.17 37.2031 293.227 37.5 293.227 37.832C293.227 38.1797 293.156 38.4941 293.016 38.7754C292.875 39.0566 292.674 39.2969 292.412 39.4961C292.15 39.6953 291.836 39.8496 291.469 39.959C291.105 40.0645 290.699 40.1172 290.25 40.1172C289.855 40.1172 289.467 40.0625 289.084 39.9531C288.705 39.8438 288.359 39.6797 288.047 39.4609C287.738 39.2422 287.49 38.9727 287.303 38.6523C287.119 38.3281 287.027 37.9531 287.027 37.5273H288.152C288.152 37.8203 288.209 38.0723 288.322 38.2832C288.436 38.4902 288.59 38.6621 288.785 38.7988C288.984 38.9355 289.209 39.0371 289.459 39.1035C289.713 39.166 289.977 39.1973 290.25 39.1973C290.645 39.1973 290.979 39.1426 291.252 39.0332C291.525 38.9238 291.732 38.7676 291.873 38.5645C292.018 38.3613 292.09 38.1211 292.09 37.8438ZM302.525 31.4688H303.65V37.2402C303.65 37.8809 303.508 38.4141 303.223 38.8398C302.938 39.2656 302.559 39.5859 302.086 39.8008C301.617 40.0117 301.107 40.1172 300.557 40.1172C299.979 40.1172 299.455 40.0117 298.986 39.8008C298.521 39.5859 298.152 39.2656 297.879 38.8398C297.609 38.4141 297.475 37.8809 297.475 37.2402V31.4688H298.594V37.2402C298.594 37.6855 298.676 38.0527 298.84 38.3418C299.004 38.6309 299.232 38.8457 299.525 38.9863C299.822 39.127 300.166 39.1973 300.557 39.1973C300.951 39.1973 301.295 39.127 301.588 38.9863C301.885 38.8457 302.115 38.6309 302.279 38.3418C302.443 38.0527 302.525 37.6855 302.525 37.2402V31.4688ZM308.572 36.6543H306.293V35.7344H308.572C309.014 35.7344 309.371 35.6641 309.645 35.5234C309.918 35.3828 310.117 35.1875 310.242 34.9375C310.371 34.6875 310.436 34.4023 310.436 34.082C310.436 33.7891 310.371 33.5137 310.242 33.2559C310.117 32.998 309.918 32.791 309.645 32.6348C309.371 32.4746 309.014 32.3945 308.572 32.3945H306.557V40H305.426V31.4688H308.572C309.217 31.4688 309.762 31.5801 310.207 31.8027C310.652 32.0254 310.99 32.334 311.221 32.7285C311.451 33.1191 311.566 33.5664 311.566 34.0703C311.566 34.6172 311.451 35.084 311.221 35.4707C310.99 35.8574 310.652 36.1523 310.207 36.3555C309.762 36.5547 309.217 36.6543 308.572 36.6543ZM318.891 31.4688V40H317.777V31.4688H318.891ZM321.633 31.4688V32.3945H315.041V31.4688H321.633ZM329.303 35.4648V36.0039C329.303 36.6445 329.223 37.2188 329.062 37.7266C328.902 38.2344 328.672 38.666 328.371 39.0215C328.07 39.377 327.709 39.6484 327.287 39.8359C326.869 40.0234 326.4 40.1172 325.881 40.1172C325.377 40.1172 324.914 40.0234 324.492 39.8359C324.074 39.6484 323.711 39.377 323.402 39.0215C323.098 38.666 322.861 38.2344 322.693 37.7266C322.525 37.2188 322.441 36.6445 322.441 36.0039V35.4648C322.441 34.8242 322.523 34.252 322.688 33.748C322.855 33.2402 323.092 32.8086 323.396 32.4531C323.701 32.0938 324.062 31.8203 324.48 31.6328C324.902 31.4453 325.365 31.3516 325.869 31.3516C326.389 31.3516 326.857 31.4453 327.275 31.6328C327.697 31.8203 328.059 32.0938 328.359 32.4531C328.664 32.8086 328.896 33.2402 329.057 33.748C329.221 34.252 329.303 34.8242 329.303 35.4648ZM328.184 36.0039V35.4531C328.184 34.9453 328.131 34.4961 328.025 34.1055C327.924 33.7148 327.773 33.3867 327.574 33.1211C327.375 32.8555 327.131 32.6543 326.842 32.5176C326.557 32.3809 326.232 32.3125 325.869 32.3125C325.518 32.3125 325.199 32.3809 324.914 32.5176C324.633 32.6543 324.391 32.8555 324.188 33.1211C323.988 33.3867 323.834 33.7148 323.725 34.1055C323.615 34.4961 323.561 34.9453 323.561 35.4531V36.0039C323.561 36.5156 323.615 36.9688 323.725 37.3633C323.834 37.7539 323.99 38.084 324.193 38.3535C324.4 38.6191 324.645 38.8203 324.926 38.957C325.211 39.0938 325.529 39.1621 325.881 39.1621C326.248 39.1621 326.574 39.0938 326.859 38.957C327.145 38.8203 327.385 38.6191 327.58 38.3535C327.779 38.084 327.93 37.7539 328.031 37.3633C328.133 36.9688 328.184 36.5156 328.184 36.0039ZM337.254 31.4219V40H336.17V32.7754L333.984 33.5723V32.5938L337.084 31.4219H337.254ZM345.82 37.6914C345.82 38.2109 345.699 38.6523 345.457 39.0156C345.219 39.375 344.895 39.6484 344.484 39.8359C344.078 40.0234 343.619 40.1172 343.107 40.1172C342.596 40.1172 342.135 40.0234 341.725 39.8359C341.314 39.6484 340.99 39.375 340.752 39.0156C340.514 38.6523 340.395 38.2109 340.395 37.6914C340.395 37.3516 340.459 37.041 340.588 36.7598C340.721 36.4746 340.906 36.2266 341.145 36.0156C341.387 35.8047 341.672 35.6426 342 35.5293C342.332 35.4121 342.697 35.3535 343.096 35.3535C343.619 35.3535 344.086 35.4551 344.496 35.6582C344.906 35.8574 345.229 36.1328 345.463 36.4844C345.701 36.8359 345.82 37.2383 345.82 37.6914ZM344.73 37.668C344.73 37.3516 344.662 37.0723 344.525 36.8301C344.389 36.584 344.197 36.3926 343.951 36.2559C343.705 36.1191 343.42 36.0508 343.096 36.0508C342.764 36.0508 342.477 36.1191 342.234 36.2559C341.996 36.3926 341.811 36.584 341.678 36.8301C341.545 37.0723 341.479 37.3516 341.479 37.668C341.479 37.9961 341.543 38.2773 341.672 38.5117C341.805 38.7422 341.992 38.9199 342.234 39.0449C342.48 39.166 342.771 39.2266 343.107 39.2266C343.443 39.2266 343.732 39.166 343.975 39.0449C344.217 38.9199 344.402 38.7422 344.531 38.5117C344.664 38.2773 344.73 37.9961 344.73 37.668ZM345.621 33.6895C345.621 34.1035 345.512 34.4766 345.293 34.8086C345.074 35.1406 344.775 35.4023 344.396 35.5938C344.018 35.7852 343.588 35.8809 343.107 35.8809C342.619 35.8809 342.184 35.7852 341.801 35.5938C341.422 35.4023 341.125 35.1406 340.91 34.8086C340.695 34.4766 340.588 34.1035 340.588 33.6895C340.588 33.1934 340.695 32.7715 340.91 32.4238C341.129 32.0762 341.428 31.8105 341.807 31.627C342.186 31.4434 342.617 31.3516 343.102 31.3516C343.59 31.3516 344.023 31.4434 344.402 31.627C344.781 31.8105 345.078 32.0762 345.293 32.4238C345.512 32.7715 345.621 33.1934 345.621 33.6895ZM344.537 33.707C344.537 33.4219 344.477 33.1699 344.355 32.9512C344.234 32.7324 344.066 32.5605 343.852 32.4355C343.637 32.3066 343.387 32.2422 343.102 32.2422C342.816 32.2422 342.566 32.3027 342.352 32.4238C342.141 32.541 341.975 32.709 341.854 32.9277C341.736 33.1465 341.678 33.4062 341.678 33.707C341.678 34 341.736 34.2559 341.854 34.4746C341.975 34.6934 342.143 34.8633 342.357 34.9844C342.572 35.1055 342.822 35.166 343.107 35.166C343.393 35.166 343.641 35.1055 343.852 34.9844C344.066 34.8633 344.234 34.6934 344.355 34.4746C344.477 34.2559 344.537 34 344.537 33.707ZM352.547 35.0547V36.3555C352.547 37.0547 352.484 37.6445 352.359 38.125C352.234 38.6055 352.055 38.9922 351.82 39.2852C351.586 39.5781 351.303 39.791 350.971 39.9238C350.643 40.0527 350.271 40.1172 349.857 40.1172C349.529 40.1172 349.227 40.0762 348.949 39.9941C348.672 39.9121 348.422 39.7812 348.199 39.6016C347.98 39.418 347.793 39.1797 347.637 38.8867C347.48 38.5938 347.361 38.2383 347.279 37.8203C347.197 37.4023 347.156 36.9141 347.156 36.3555V35.0547C347.156 34.3555 347.219 33.7695 347.344 33.2969C347.473 32.8242 347.654 32.4453 347.889 32.1602C348.123 31.8711 348.404 31.6641 348.732 31.5391C349.064 31.4141 349.436 31.3516 349.846 31.3516C350.178 31.3516 350.482 31.3926 350.76 31.4746C351.041 31.5527 351.291 31.6797 351.51 31.8555C351.729 32.0273 351.914 32.2578 352.066 32.5469C352.223 32.832 352.342 33.1816 352.424 33.5957C352.506 34.0098 352.547 34.4961 352.547 35.0547ZM351.457 36.5312V34.873C351.457 34.4902 351.434 34.1543 351.387 33.8652C351.344 33.5723 351.279 33.3223 351.193 33.1152C351.107 32.9082 350.998 32.7402 350.865 32.6113C350.736 32.4824 350.586 32.3887 350.414 32.3301C350.246 32.2676 350.057 32.2363 349.846 32.2363C349.588 32.2363 349.359 32.2852 349.16 32.3828C348.961 32.4766 348.793 32.627 348.656 32.834C348.523 33.041 348.422 33.3125 348.352 33.6484C348.281 33.9844 348.246 34.3926 348.246 34.873V36.5312C348.246 36.9141 348.268 37.252 348.311 37.5449C348.357 37.8379 348.426 38.0918 348.516 38.3066C348.605 38.5176 348.715 38.6914 348.844 38.8281C348.973 38.9648 349.121 39.0664 349.289 39.1328C349.461 39.1953 349.65 39.2266 349.857 39.2266C350.123 39.2266 350.355 39.1758 350.555 39.0742C350.754 38.9727 350.92 38.8145 351.053 38.5996C351.189 38.3809 351.291 38.1016 351.357 37.7617C351.424 37.418 351.457 37.0078 351.457 36.5312ZM362.35 37.2871H363.475C363.416 37.8262 363.262 38.3086 363.012 38.7344C362.762 39.1602 362.408 39.498 361.951 39.748C361.494 39.9941 360.924 40.1172 360.24 40.1172C359.74 40.1172 359.285 40.0234 358.875 39.8359C358.469 39.6484 358.119 39.3828 357.826 39.0391C357.533 38.6914 357.307 38.2754 357.146 37.791C356.99 37.3027 356.912 36.7598 356.912 36.1621V35.3125C356.912 34.7148 356.99 34.1738 357.146 33.6895C357.307 33.2012 357.535 32.7832 357.832 32.4355C358.133 32.0879 358.494 31.8203 358.916 31.6328C359.338 31.4453 359.812 31.3516 360.34 31.3516C360.984 31.3516 361.529 31.4727 361.975 31.7148C362.42 31.957 362.766 32.293 363.012 32.7227C363.262 33.1484 363.416 33.6426 363.475 34.2051H362.35C362.295 33.8066 362.193 33.4648 362.045 33.1797C361.896 32.8906 361.686 32.668 361.412 32.5117C361.139 32.3555 360.781 32.2773 360.34 32.2773C359.961 32.2773 359.627 32.3496 359.338 32.4941C359.053 32.6387 358.812 32.8438 358.617 33.1094C358.426 33.375 358.281 33.6934 358.184 34.0645C358.086 34.4355 358.037 34.8477 358.037 35.3008V36.1621C358.037 36.5801 358.08 36.9727 358.166 37.3398C358.256 37.707 358.391 38.0293 358.57 38.3066C358.75 38.584 358.979 38.8027 359.256 38.9629C359.533 39.1191 359.861 39.1973 360.24 39.1973C360.721 39.1973 361.104 39.1211 361.389 38.9688C361.674 38.8164 361.889 38.5977 362.033 38.3125C362.182 38.0273 362.287 37.6855 362.35 37.2871ZM365.373 31.4688H366.469L369.264 38.4238L372.053 31.4688H373.154L369.686 40H368.83L365.373 31.4688ZM365.016 31.4688H365.982L366.141 36.6719V40H365.016V31.4688ZM372.539 31.4688H373.506V40H372.381V36.6719L372.539 31.4688ZM380.713 37.4219L382.406 31.4688H383.227L382.752 33.7832L380.93 40H380.115L380.713 37.4219ZM378.961 31.4688L380.309 37.3047L380.713 40H379.904L377.836 31.4688H378.961ZM385.418 37.2988L386.736 31.4688H387.867L385.805 40H384.996L385.418 37.2988ZM383.35 31.4688L384.996 37.4219L385.594 40H384.779L383.021 33.7832L382.541 31.4688H383.35ZM390.334 31.4688V40H389.203V31.4688H390.334ZM394.699 40H392.918L392.93 39.0801H394.699C395.309 39.0801 395.816 38.9531 396.223 38.6992C396.629 38.4414 396.934 38.082 397.137 37.6211C397.344 37.1562 397.447 36.6133 397.447 35.9922V35.4707C397.447 34.9824 397.389 34.5488 397.271 34.1699C397.154 33.7871 396.982 33.4648 396.756 33.2031C396.529 32.9375 396.252 32.7363 395.924 32.5996C395.6 32.4629 395.227 32.3945 394.805 32.3945H392.883V31.4688H394.805C395.363 31.4688 395.873 31.5625 396.334 31.75C396.795 31.9336 397.191 32.2012 397.523 32.5527C397.859 32.9004 398.117 33.3223 398.297 33.8184C398.477 34.3105 398.566 34.8652 398.566 35.4824V35.9922C398.566 36.6094 398.477 37.166 398.297 37.6621C398.117 38.1543 397.857 38.5742 397.518 38.9219C397.182 39.2695 396.775 39.5371 396.299 39.7246C395.826 39.9082 395.293 40 394.699 40ZM393.521 31.4688V40H392.391V31.4688H393.521ZM405.686 39.0801V40H401.168V39.0801H405.686ZM401.396 31.4688V40H400.266V31.4688H401.396ZM405.088 35.1367V36.0566H401.168V35.1367H405.088ZM405.627 31.4688V32.3945H401.168V31.4688H405.627Z" fill="black"/>
</svg>
