<svg width="538" height="230" viewBox="0 0 538 230" fill="none" xmlns="http://www.w3.org/2000/svg">
<path d="M229.271 6.6H235.751V15H234.623V7.632H230.399V15H229.271V6.6ZM237.673 6.6H240.493C241.533 6.6 242.301 6.836 242.797 7.308C243.301 7.78 243.553 8.44 243.553 9.288C243.553 10.136 243.301 10.796 242.797 11.268C242.293 11.74 241.525 11.976 240.493 11.976H238.801V15H237.673V6.6ZM238.801 7.632V10.944H240.433C241.129 10.944 241.625 10.808 241.921 10.536C242.225 10.256 242.377 9.84 242.377 9.288C242.377 8.744 242.225 8.332 241.921 8.052C241.617 7.772 241.121 7.632 240.433 7.632H238.801ZM244.868 6.6H245.996V13.68H246.02L249.884 6.6H251.468V15H250.34V7.92H250.316L246.452 15H244.868V6.6ZM253.388 6.6H255.068L257.312 11.544H257.336L259.58 6.6H261.188V15H260.06V7.92H260.036L257.888 12.66H256.688L254.54 7.92H254.516V15H253.388V6.6ZM263.103 6.6H268.323V7.632H264.231V10.164H267.603V11.196H264.231V13.968H268.323V15H263.103V6.6ZM272.457 12.036C271.961 12.036 271.541 11.988 271.197 11.892C270.853 11.796 270.569 11.668 270.345 11.508C270.129 11.348 269.961 11.164 269.841 10.956C269.721 10.748 269.629 10.536 269.565 10.32C269.509 10.096 269.477 9.876 269.469 9.66C269.461 9.444 269.457 9.244 269.457 9.06V6.6H270.585V9C270.585 9.2 270.593 9.416 270.609 9.648C270.633 9.88 270.705 10.096 270.825 10.296C270.945 10.496 271.129 10.664 271.377 10.8C271.633 10.936 271.993 11.004 272.457 11.004C272.793 11.004 273.109 10.984 273.405 10.944C273.709 10.904 274.017 10.84 274.329 10.752V6.6H275.457V15H274.329V11.808C273.961 11.896 273.629 11.956 273.333 11.988C273.037 12.02 272.745 12.036 272.457 12.036ZM279.716 6.6H281.036L284.096 15H282.872L282.08 12.696H278.612L277.808 15H276.656L279.716 6.6ZM281.72 11.664L280.376 7.74H280.352L278.972 11.664H281.72ZM285.298 6.6H286.426V10.164H290.77V6.6H291.898V15H290.77V11.196H286.426V15H285.298V6.6ZM293.817 6.6H294.945V13.68H294.969L298.833 6.6H300.417V15H299.289V7.92H299.265L295.401 15H293.817V6.6ZM302.337 6.6H307.557V7.632H303.465V10.164H306.837V11.196H303.465V13.968H307.557V15H302.337V6.6ZM309.892 10.512C309.652 10.512 309.456 10.436 309.304 10.284C309.16 10.132 309.088 9.94 309.088 9.708C309.088 9.476 309.16 9.284 309.304 9.132C309.456 8.98 309.652 8.904 309.892 8.904C310.132 8.904 310.324 8.98 310.468 9.132C310.62 9.284 310.696 9.476 310.696 9.708C310.696 9.94 310.62 10.132 310.468 10.284C310.324 10.436 310.132 10.512 309.892 10.512ZM309.892 15.096C309.652 15.096 309.456 15.02 309.304 14.868C309.16 14.716 309.088 14.524 309.088 14.292C309.088 14.06 309.16 13.868 309.304 13.716C309.456 13.564 309.652 13.488 309.892 13.488C310.132 13.488 310.324 13.564 310.468 13.716C310.62 13.868 310.696 14.06 310.696 14.292C310.696 14.524 310.62 14.716 310.468 14.868C310.324 15.02 310.132 15.096 309.892 15.096Z" fill="#0F0D0E"/>
<path d="M118.426 39.68H119.122C119.29 39.408 119.426 39.148 119.53 38.9C119.634 38.652 119.714 38.372 119.77 38.06C119.834 37.748 119.874 37.38 119.89 36.956C119.914 36.524 119.926 35.992 119.926 35.36V32.6H125.686V39.68H126.406V42.8H125.038V41H119.794V42.8H118.426V39.68ZM124.246 39.68V33.92H121.366V35.36C121.366 35.952 121.354 36.472 121.33 36.92C121.314 37.36 121.282 37.748 121.234 38.084C121.186 38.42 121.122 38.716 121.042 38.972C120.962 39.22 120.866 39.456 120.754 39.68H124.246ZM129.486 38.6L126.534 32.6H128.142L130.23 37.04H130.254L132.102 32.6H133.614L129.954 41H128.442L129.486 38.6ZM134.578 32.6H140.098V33.92H136.018V35.672H137.638C138.67 35.672 139.438 35.908 139.942 36.38C140.446 36.852 140.698 37.504 140.698 38.336C140.698 39.152 140.442 39.8 139.93 40.28C139.418 40.76 138.654 41 137.638 41H134.578V32.6ZM137.578 39.68C138.122 39.68 138.526 39.56 138.79 39.32C139.054 39.072 139.186 38.744 139.186 38.336C139.186 37.936 139.05 37.612 138.778 37.364C138.506 37.116 138.106 36.992 137.578 36.992H136.018V39.68H137.578ZM141.184 39.8H141.304C141.624 39.8 141.872 39.712 142.048 39.536C142.232 39.36 142.364 39.12 142.444 38.816C142.532 38.512 142.584 38.156 142.6 37.748C142.616 37.34 142.624 36.904 142.624 36.44V32.6H148.384V41H146.944V33.92H144.064V36.44C144.064 37.008 144.04 37.572 143.992 38.132C143.952 38.692 143.84 39.196 143.656 39.644C143.48 40.084 143.208 40.44 142.84 40.712C142.472 40.984 141.96 41.12 141.304 41.12H141.184V39.8ZM150.059 32.6H151.499V39.2H151.523L154.955 32.6H156.899V41H155.459V34.4H155.435L152.003 41H150.059V32.6ZM158.578 32.6H161.518C162.606 32.6 163.406 32.844 163.918 33.332C164.438 33.812 164.698 34.492 164.698 35.372C164.698 36.244 164.434 36.928 163.906 37.424C163.378 37.92 162.582 38.168 161.518 38.168H160.018V41H158.578V32.6ZM160.018 33.92V36.848H161.458C162.074 36.848 162.514 36.724 162.778 36.476C163.05 36.228 163.186 35.86 163.186 35.372C163.186 34.916 163.046 34.56 162.766 34.304C162.486 34.048 162.05 33.92 161.458 33.92H160.018ZM169.194 41.12C168.626 41.12 168.114 41.032 167.658 40.856C167.202 40.672 166.81 40.408 166.482 40.064C166.162 39.712 165.914 39.28 165.738 38.768C165.562 38.248 165.474 37.656 165.474 36.992V36.488C165.474 35.856 165.562 35.292 165.738 34.796C165.914 34.3 166.162 33.88 166.482 33.536C166.81 33.192 167.202 32.932 167.658 32.756C168.122 32.572 168.634 32.48 169.194 32.48C169.754 32.48 170.262 32.572 170.718 32.756C171.182 32.932 171.574 33.192 171.894 33.536C172.222 33.872 172.474 34.292 172.65 34.796C172.826 35.292 172.914 35.856 172.914 36.488V36.992C172.914 37.656 172.826 38.244 172.65 38.756C172.474 39.268 172.222 39.7 171.894 40.052C171.574 40.404 171.182 40.672 170.718 40.856C170.262 41.032 169.754 41.12 169.194 41.12ZM169.194 39.8C169.858 39.8 170.39 39.576 170.79 39.128C171.198 38.68 171.402 37.968 171.402 36.992V36.488C171.402 35.592 171.198 34.92 170.79 34.472C170.382 34.024 169.85 33.8 169.194 33.8C168.522 33.8 167.986 34.02 167.586 34.46C167.186 34.9 166.986 35.576 166.986 36.488V36.992C166.986 37.952 167.186 38.66 167.586 39.116C167.994 39.572 168.53 39.8 169.194 39.8ZM174.293 32.6H177.173C178.253 32.6 179.021 32.8 179.477 33.2C179.941 33.6 180.173 34.16 180.173 34.88C180.173 35.656 179.817 36.236 179.105 36.62V36.644C179.977 37.012 180.413 37.656 180.413 38.576C180.413 39.368 180.181 39.972 179.717 40.388C179.261 40.796 178.493 41 177.413 41H174.293V32.6ZM175.733 33.92V36.08H177.113C177.697 36.08 178.101 35.988 178.325 35.804C178.549 35.62 178.661 35.352 178.661 35C178.661 34.648 178.549 34.38 178.325 34.196C178.101 34.012 177.697 33.92 177.113 33.92H175.733ZM175.733 37.28V39.68H177.353C177.937 39.68 178.341 39.584 178.565 39.392C178.789 39.192 178.901 38.888 178.901 38.48C178.901 38.072 178.789 37.772 178.565 37.58C178.341 37.38 177.937 37.28 177.353 37.28H175.733ZM183.897 32.6H185.577L188.577 41H187.041L186.345 38.9H183.045L182.337 41H180.897L183.897 32.6ZM185.913 37.58L184.725 33.98H184.701L183.489 37.58H185.913ZM189.539 32.6H190.979V36.02H194.939V32.6H196.379V41H194.939V37.34H190.979V41H189.539V32.6ZM198.059 32.6H199.499V39.2H199.523L202.955 32.6H204.899V41H203.459V34.4H203.435L200.003 41H198.059V32.6ZM206.578 32.6H211.978V33.92H208.018V36.02H211.258V37.34H208.018V39.68H211.978V41H206.578V32.6ZM216.293 32.6H218.477L220.349 37.256H220.373L222.245 32.6H224.333V41H222.893V34.22H222.869L221.033 38.78H219.593L217.757 34.22H217.733V41H216.293V32.6ZM228.288 32.6H229.968L232.968 41H231.432L230.736 38.9H227.436L226.728 41H225.288L228.288 32.6ZM230.304 37.58L229.116 33.98H229.092L227.88 37.58H230.304ZM234.889 33.92H232.309V32.6H238.909V33.92H236.329V41H234.889V33.92ZM239.93 32.6H245.33V33.92H241.37V36.02H244.61V37.34H241.37V39.68H245.33V41H239.93V32.6ZM246.645 32.6H249.585C250.673 32.6 251.473 32.844 251.985 33.332C252.505 33.812 252.765 34.492 252.765 35.372C252.765 36.244 252.501 36.928 251.973 37.424C251.445 37.92 250.649 38.168 249.585 38.168H248.085V41H246.645V32.6ZM248.085 33.92V36.848H249.525C250.141 36.848 250.581 36.724 250.845 36.476C251.117 36.228 251.253 35.86 251.253 35.372C251.253 34.916 251.113 34.56 250.833 34.304C250.553 34.048 250.117 33.92 249.525 33.92H248.085ZM253.84 32.6H255.28V39.2H255.304L258.736 32.6H260.68V41H259.24V34.4H259.216L255.784 41H253.84V32.6ZM264.64 32.6H266.32L269.32 41H267.784L267.088 38.9H263.788L263.08 41H261.64L264.64 32.6ZM266.656 37.58L265.468 33.98H265.444L264.232 37.58H266.656ZM269.856 39.8H269.976C270.296 39.8 270.544 39.712 270.72 39.536C270.904 39.36 271.036 39.12 271.116 38.816C271.204 38.512 271.256 38.156 271.272 37.748C271.288 37.34 271.296 36.904 271.296 36.44V32.6H277.056V41H275.616V33.92H272.736V36.44C272.736 37.008 272.712 37.572 272.664 38.132C272.624 38.692 272.512 39.196 272.328 39.644C272.152 40.084 271.88 40.44 271.512 40.712C271.144 40.984 270.632 41.12 269.976 41.12H269.856V39.8ZM282.151 41.12C281.583 41.12 281.071 41.032 280.615 40.856C280.159 40.672 279.767 40.408 279.439 40.064C279.119 39.712 278.871 39.28 278.695 38.768C278.519 38.248 278.431 37.656 278.431 36.992V36.488C278.431 35.856 278.519 35.292 278.695 34.796C278.871 34.3 279.119 33.88 279.439 33.536C279.767 33.192 280.159 32.932 280.615 32.756C281.079 32.572 281.591 32.48 282.151 32.48C282.711 32.48 283.219 32.572 283.675 32.756C284.139 32.932 284.531 33.192 284.851 33.536C285.179 33.872 285.431 34.292 285.607 34.796C285.783 35.292 285.871 35.856 285.871 36.488V36.992C285.871 37.656 285.783 38.244 285.607 38.756C285.431 39.268 285.179 39.7 284.851 40.052C284.531 40.404 284.139 40.672 283.675 40.856C283.219 41.032 282.711 41.12 282.151 41.12ZM282.151 39.8C282.815 39.8 283.347 39.576 283.747 39.128C284.155 38.68 284.359 37.968 284.359 36.992V36.488C284.359 35.592 284.155 34.92 283.747 34.472C283.339 34.024 282.807 33.8 282.151 33.8C281.479 33.8 280.943 34.02 280.543 34.46C280.143 34.9 279.943 35.576 279.943 36.488V36.992C279.943 37.952 280.143 38.66 280.543 39.116C280.951 39.572 281.487 39.8 282.151 39.8ZM287.25 32.6H290.13C291.21 32.6 291.978 32.8 292.434 33.2C292.898 33.6 293.13 34.16 293.13 34.88C293.13 35.656 292.774 36.236 292.062 36.62V36.644C292.934 37.012 293.37 37.656 293.37 38.576C293.37 39.368 293.138 39.972 292.674 40.388C292.218 40.796 291.45 41 290.37 41H287.25V32.6ZM288.69 33.92V36.08H290.07C290.654 36.08 291.058 35.988 291.282 35.804C291.506 35.62 291.618 35.352 291.618 35C291.618 34.648 291.506 34.38 291.282 34.196C291.058 34.012 290.654 33.92 290.07 33.92H288.69ZM288.69 37.28V39.68H290.31C290.894 39.68 291.298 39.584 291.522 39.392C291.746 39.192 291.858 38.888 291.858 38.48C291.858 38.072 291.746 37.772 291.522 37.58C291.298 37.38 290.894 37.28 290.31 37.28H288.69ZM297.032 39.68H297.728C297.896 39.408 298.032 39.148 298.136 38.9C298.24 38.652 298.32 38.372 298.376 38.06C298.44 37.748 298.48 37.38 298.496 36.956C298.52 36.524 298.532 35.992 298.532 35.36V32.6H304.292V39.68H305.012V42.8H303.644V41H298.4V42.8H297.032V39.68ZM302.852 39.68V33.92H299.972V35.36C299.972 35.952 299.96 36.472 299.936 36.92C299.92 37.36 299.888 37.748 299.84 38.084C299.792 38.42 299.728 38.716 299.648 38.972C299.568 39.22 299.472 39.456 299.36 39.68H302.852ZM309.338 41.12C308.77 41.12 308.258 41.032 307.802 40.856C307.346 40.672 306.954 40.408 306.626 40.064C306.306 39.712 306.058 39.28 305.882 38.768C305.706 38.248 305.618 37.656 305.618 36.992V36.488C305.618 35.856 305.706 35.292 305.882 34.796C306.058 34.3 306.306 33.88 306.626 33.536C306.954 33.192 307.346 32.932 307.802 32.756C308.266 32.572 308.778 32.48 309.338 32.48C309.898 32.48 310.406 32.572 310.862 32.756C311.326 32.932 311.718 33.192 312.038 33.536C312.366 33.872 312.618 34.292 312.794 34.796C312.97 35.292 313.058 35.856 313.058 36.488V36.992C313.058 37.656 312.97 38.244 312.794 38.756C312.618 39.268 312.366 39.7 312.038 40.052C311.718 40.404 311.326 40.672 310.862 40.856C310.406 41.032 309.898 41.12 309.338 41.12ZM309.338 39.8C310.002 39.8 310.534 39.576 310.934 39.128C311.342 38.68 311.546 37.968 311.546 36.992V36.488C311.546 35.592 311.342 34.92 310.934 34.472C310.526 34.024 309.994 33.8 309.338 33.8C308.666 33.8 308.13 34.02 307.73 34.46C307.33 34.9 307.13 35.576 307.13 36.488V36.992C307.13 37.952 307.33 38.66 307.73 39.116C308.138 39.572 308.674 39.8 309.338 39.8ZM318.398 34.088L316.718 35.204V33.728L318.398 32.6H319.838V41H318.398V34.088ZM324.333 41.12C323.837 41.12 323.401 41.06 323.025 40.94C322.657 40.82 322.345 40.652 322.089 40.436C321.841 40.22 321.653 39.964 321.525 39.668C321.397 39.364 321.333 39.032 321.333 38.672C321.333 38.192 321.453 37.784 321.693 37.448C321.941 37.112 322.265 36.84 322.665 36.632C322.329 36.44 322.061 36.192 321.861 35.888C321.669 35.584 321.573 35.216 321.573 34.784C321.573 34.456 321.637 34.152 321.765 33.872C321.893 33.592 322.077 33.348 322.317 33.14C322.557 32.932 322.845 32.772 323.181 32.66C323.525 32.54 323.909 32.48 324.333 32.48C324.765 32.48 325.153 32.54 325.497 32.66C325.841 32.772 326.129 32.932 326.361 33.14C326.601 33.34 326.781 33.58 326.901 33.86C327.029 34.14 327.093 34.448 327.093 34.784C327.093 35.208 326.993 35.572 326.793 35.876C326.593 36.18 326.325 36.428 325.989 36.62C326.397 36.828 326.721 37.104 326.961 37.448C327.209 37.784 327.333 38.192 327.333 38.672C327.333 39.016 327.265 39.34 327.129 39.644C327.001 39.94 326.809 40.2 326.553 40.424C326.305 40.64 325.993 40.812 325.617 40.94C325.249 41.06 324.821 41.12 324.333 41.12ZM324.333 36.068C324.501 36.044 324.661 36.004 324.813 35.948C324.965 35.892 325.097 35.816 325.209 35.72C325.321 35.624 325.409 35.508 325.473 35.372C325.545 35.228 325.581 35.052 325.581 34.844C325.581 34.716 325.549 34.592 325.485 34.472C325.429 34.352 325.345 34.244 325.233 34.148C325.129 34.052 325.001 33.976 324.849 33.92C324.697 33.856 324.525 33.824 324.333 33.824C324.141 33.824 323.965 33.856 323.805 33.92C323.653 33.976 323.521 34.052 323.409 34.148C323.305 34.244 323.225 34.352 323.169 34.472C323.113 34.592 323.085 34.716 323.085 34.844C323.085 35.036 323.121 35.204 323.193 35.348C323.265 35.492 323.357 35.612 323.469 35.708C323.589 35.804 323.721 35.884 323.865 35.948C324.017 36.004 324.173 36.044 324.333 36.068ZM324.333 39.776C324.573 39.776 324.785 39.744 324.969 39.68C325.153 39.616 325.305 39.532 325.425 39.428C325.553 39.316 325.649 39.192 325.713 39.056C325.785 38.92 325.821 38.776 325.821 38.624C325.821 38.416 325.781 38.232 325.701 38.072C325.621 37.904 325.513 37.76 325.377 37.64C325.241 37.52 325.081 37.424 324.897 37.352C324.721 37.28 324.533 37.232 324.333 37.208C323.917 37.256 323.565 37.396 323.277 37.628C322.989 37.86 322.845 38.192 322.845 38.624C322.845 38.776 322.877 38.924 322.941 39.068C323.013 39.204 323.113 39.324 323.241 39.428C323.369 39.532 323.525 39.616 323.709 39.68C323.893 39.744 324.101 39.776 324.333 39.776ZM331.531 41.12C331.067 41.12 330.647 41.048 330.271 40.904C329.903 40.752 329.591 40.516 329.335 40.196C329.079 39.876 328.879 39.464 328.735 38.96C328.599 38.448 328.531 37.832 328.531 37.112V36.488C328.531 35.776 328.599 35.168 328.735 34.664C328.879 34.152 329.079 33.736 329.335 33.416C329.599 33.088 329.915 32.852 330.283 32.708C330.651 32.556 331.067 32.48 331.531 32.48C331.995 32.48 332.411 32.556 332.779 32.708C333.155 32.852 333.471 33.084 333.727 33.404C333.991 33.724 334.191 34.14 334.327 34.652C334.463 35.156 334.531 35.768 334.531 36.488V37.112C334.531 37.824 334.459 38.436 334.315 38.948C334.179 39.452 333.979 39.868 333.715 40.196C333.459 40.516 333.147 40.752 332.779 40.904C332.411 41.048 331.995 41.12 331.531 41.12ZM331.531 39.776C331.763 39.776 331.971 39.736 332.155 39.656C332.339 39.576 332.495 39.436 332.623 39.236C332.751 39.036 332.847 38.764 332.911 38.42C332.983 38.076 333.019 37.64 333.019 37.112V36.488C333.019 35.968 332.983 35.536 332.911 35.192C332.839 34.848 332.739 34.576 332.611 34.376C332.483 34.168 332.327 34.024 332.143 33.944C331.959 33.864 331.755 33.824 331.531 33.824C331.299 33.824 331.091 33.864 330.907 33.944C330.723 34.024 330.567 34.164 330.439 34.364C330.311 34.564 330.211 34.836 330.139 35.18C330.075 35.524 330.043 35.96 330.043 36.488V37.112C330.043 37.632 330.075 38.064 330.139 38.408C330.211 38.752 330.311 39.028 330.439 39.236C330.575 39.436 330.731 39.576 330.907 39.656C331.091 39.736 331.299 39.776 331.531 39.776ZM342.395 41.12C341.843 41.12 341.343 41.032 340.895 40.856C340.447 40.672 340.063 40.408 339.743 40.064C339.423 39.712 339.175 39.28 338.999 38.768C338.823 38.248 338.735 37.656 338.735 36.992V36.488C338.735 35.856 338.823 35.292 338.999 34.796C339.175 34.3 339.423 33.88 339.743 33.536C340.063 33.192 340.447 32.932 340.895 32.756C341.351 32.572 341.851 32.48 342.395 32.48C342.891 32.48 343.335 32.552 343.727 32.696C344.127 32.832 344.471 33.024 344.759 33.272C345.047 33.52 345.279 33.812 345.455 34.148C345.631 34.484 345.751 34.848 345.815 35.24H344.255C344.135 34.816 343.923 34.472 343.619 34.208C343.315 33.936 342.907 33.8 342.395 33.8C341.755 33.8 341.235 34.024 340.835 34.472C340.443 34.912 340.247 35.584 340.247 36.488V36.992C340.247 37.472 340.299 37.888 340.403 38.24C340.515 38.592 340.663 38.884 340.847 39.116C341.039 39.348 341.267 39.52 341.531 39.632C341.795 39.744 342.083 39.8 342.395 39.8C342.899 39.8 343.299 39.66 343.595 39.38C343.899 39.1 344.111 38.72 344.231 38.24H345.815C345.751 38.664 345.631 39.052 345.455 39.404C345.279 39.756 345.047 40.06 344.759 40.316C344.471 40.572 344.127 40.772 343.727 40.916C343.335 41.052 342.891 41.12 342.395 41.12ZM347.074 32.6H349.258L351.13 37.256H351.154L353.026 32.6H355.114V41H353.674V34.22H353.65L351.814 38.78H350.374L348.538 34.22H348.514V41H347.074V32.6ZM359.789 32.6H362.669C363.749 32.6 364.517 32.8 364.973 33.2C365.437 33.6 365.669 34.16 365.669 34.88C365.669 35.656 365.313 36.236 364.601 36.62V36.644C365.473 37.012 365.909 37.656 365.909 38.576C365.909 39.368 365.677 39.972 365.213 40.388C364.757 40.796 363.989 41 362.909 41H359.789V32.6ZM361.229 33.92V36.08H362.609C363.193 36.08 363.597 35.988 363.821 35.804C364.045 35.62 364.157 35.352 364.157 35C364.157 34.648 364.045 34.38 363.821 34.196C363.597 34.012 363.193 33.92 362.609 33.92H361.229ZM361.229 37.28V39.68H362.849C363.433 39.68 363.837 39.584 364.061 39.392C364.285 39.192 364.397 38.888 364.397 38.48C364.397 38.072 364.285 37.772 364.061 37.58C363.837 37.38 363.433 37.28 362.849 37.28H361.229ZM370.231 32.6H371.671V39.68H374.311V32.6H375.751V39.68H378.391V32.6H379.831V41H370.231V32.6ZM381.516 32.6H382.956V39.2H382.98L386.412 32.6H388.356V41H386.916V34.4H386.892L383.46 41H381.516V32.6ZM390.035 32.6H392.975C394.063 32.6 394.863 32.844 395.375 33.332C395.895 33.812 396.155 34.492 396.155 35.372C396.155 36.244 395.891 36.928 395.363 37.424C394.835 37.92 394.039 38.168 392.975 38.168H391.475V41H390.035V32.6ZM391.475 33.92V36.848H392.915C393.531 36.848 393.971 36.724 394.235 36.476C394.507 36.228 394.643 35.86 394.643 35.372C394.643 34.916 394.503 34.56 394.223 34.304C393.943 34.048 393.507 33.92 392.915 33.92H391.475ZM397.231 32.6H398.671V39.2H398.695L402.127 32.6H404.071V41H402.631V34.4H402.607L399.175 41H397.231V32.6ZM405.75 32.6H407.19V36.02H411.15V32.6H412.59V41H411.15V37.34H407.19V41H405.75V32.6ZM416.502 38.6L413.55 32.6H415.158L417.246 37.04H417.27L419.118 32.6H420.63L416.97 41H415.458L416.502 38.6Z" fill="#0F0D0E"/>
<path d="M33 217V68H505V217" stroke="black" stroke-width="2"/>
<path d="M1 229L12.1667 218C18.3608 211.898 28.3058 211.898 34.5 218V218C40.6942 224.102 50.6392 224.102 56.8333 218V218C63.0275 211.898 72.9725 211.898 79.1667 218V218C85.3608 224.102 95.3058 224.102 101.5 218V218C107.694 211.898 117.639 211.898 123.833 218V218C130.027 224.102 139.973 224.102 146.167 218V218C152.361 211.898 162.306 211.898 168.5 218V218C174.694 224.102 184.639 224.102 190.833 218V218C197.027 211.898 206.973 211.898 213.167 218V218C219.361 224.102 229.306 224.102 235.5 218V218C241.694 211.898 251.639 211.898 257.833 218V218C264.027 224.102 273.973 224.102 280.167 218V218C286.361 211.898 296.306 211.898 302.5 218V218C308.694 224.102 318.639 224.102 324.833 218V218C331.027 211.898 340.973 211.898 347.167 218V218C353.361 224.102 363.306 224.102 369.5 218V218C375.694 211.898 385.639 211.898 391.833 218V218C398.027 224.102 407.973 224.102 414.167 218V218C420.361 211.898 430.306 211.898 436.5 218V218C442.694 224.102 452.639 224.102 458.833 218V218C465.027 211.898 474.973 211.898 481.167 218V218C487.361 224.102 497.306 224.102 503.5 218V218C509.694 211.898 519.639 211.898 525.833 218L537 229" stroke="black"/>
<path d="M505 28V46" stroke="black" stroke-width="2"/>
<path d="M33 28V46" stroke="black" stroke-width="2"/>
<path d="M432.5 37L505 37" stroke="black" stroke-width="2"/>
<path d="M33 37L105.5 37" stroke="black" stroke-width="2"/>
<path d="M33 77H505" stroke="black" stroke-dasharray="4 4"/>
</svg>
