<svg width="120" height="120" viewBox="0 0 120 120" fill="none" xmlns="http://www.w3.org/2000/svg">
<circle cx="60" cy="60" r="60" fill="#0F0D0E"/>
<path d="M25.5 62.6543H23.2207V61.7344H25.5C25.9414 61.7344 26.2988 61.6641 26.5723 61.5234C26.8457 61.3828 27.0449 61.1875 27.1699 60.9375C27.2988 60.6875 27.3633 60.4023 27.3633 60.082C27.3633 59.7891 27.2988 59.5137 27.1699 59.2559C27.0449 58.998 26.8457 58.791 26.5723 58.6348C26.2988 58.4746 25.9414 58.3945 25.5 58.3945H23.4844V66H22.3535V57.4688H25.5C26.1445 57.4688 26.6895 57.5801 27.1348 57.8027C27.5801 58.0254 27.918 58.334 28.1484 58.7285C28.3789 59.1191 28.4941 59.5664 28.4941 60.0703C28.4941 60.6172 28.3789 61.084 28.1484 61.4707C27.918 61.8574 27.5801 62.1523 27.1348 62.3555C26.6895 62.5547 26.1445 62.6543 25.5 62.6543ZM35.0977 65.0801V66H30.832V65.0801H35.0977ZM31.0547 57.4688V66H29.9238V57.4688H31.0547ZM39.668 58.2246L36.8438 66H35.6895L38.9414 57.4688H39.6855L39.668 58.2246ZM42.0352 66L39.2051 58.2246L39.1875 57.4688H39.9316L43.1953 66H42.0352ZM41.8887 62.8418V63.7676H37.0957V62.8418H41.8887ZM49.418 63.2871H50.543C50.4844 63.8262 50.3301 64.3086 50.0801 64.7344C49.8301 65.1602 49.4766 65.498 49.0195 65.748C48.5625 65.9941 47.9922 66.1172 47.3086 66.1172C46.8086 66.1172 46.3535 66.0234 45.9434 65.8359C45.5371 65.6484 45.1875 65.3828 44.8945 65.0391C44.6016 64.6914 44.375 64.2754 44.2148 63.791C44.0586 63.3027 43.9805 62.7598 43.9805 62.1621V61.3125C43.9805 60.7148 44.0586 60.1738 44.2148 59.6895C44.375 59.2012 44.6035 58.7832 44.9004 58.4355C45.2012 58.0879 45.5625 57.8203 45.9844 57.6328C46.4062 57.4453 46.8809 57.3516 47.4082 57.3516C48.0527 57.3516 48.5977 57.4727 49.043 57.7148C49.4883 57.957 49.834 58.293 50.0801 58.7227C50.3301 59.1484 50.4844 59.6426 50.543 60.2051H49.418C49.3633 59.8066 49.2617 59.4648 49.1133 59.1797C48.9648 58.8906 48.7539 58.668 48.4805 58.5117C48.207 58.3555 47.8496 58.2773 47.4082 58.2773C47.0293 58.2773 46.6953 58.3496 46.4062 58.4941C46.1211 58.6387 45.8809 58.8438 45.6855 59.1094C45.4941 59.375 45.3496 59.6934 45.252 60.0645C45.1543 60.4355 45.1055 60.8477 45.1055 61.3008V62.1621C45.1055 62.5801 45.1484 62.9727 45.2344 63.3398C45.3242 63.707 45.459 64.0293 45.6387 64.3066C45.8184 64.584 46.0469 64.8027 46.3242 64.9629C46.6016 65.1191 46.9297 65.1973 47.3086 65.1973C47.7891 65.1973 48.1719 65.1211 48.457 64.9688C48.7422 64.8164 48.957 64.5977 49.1016 64.3125C49.25 64.0273 49.3555 63.6855 49.418 63.2871ZM57.5039 65.0801V66H52.9863V65.0801H57.5039ZM53.2148 57.4688V66H52.084V57.4688H53.2148ZM56.9062 61.1367V62.0566H52.9863V61.1367H56.9062ZM57.4453 57.4688V58.3945H52.9863V57.4688H57.4453ZM68.4492 61.4648V62.0039C68.4492 62.6445 68.3691 63.2188 68.209 63.7266C68.0488 64.2344 67.8184 64.666 67.5176 65.0215C67.2168 65.377 66.8555 65.6484 66.4336 65.8359C66.0156 66.0234 65.5469 66.1172 65.0273 66.1172C64.5234 66.1172 64.0605 66.0234 63.6387 65.8359C63.2207 65.6484 62.8574 65.377 62.5488 65.0215C62.2441 64.666 62.0078 64.2344 61.8398 63.7266C61.6719 63.2188 61.5879 62.6445 61.5879 62.0039V61.4648C61.5879 60.8242 61.6699 60.252 61.834 59.748C62.002 59.2402 62.2383 58.8086 62.543 58.4531C62.8477 58.0938 63.209 57.8203 63.627 57.6328C64.0488 57.4453 64.5117 57.3516 65.0156 57.3516C65.5352 57.3516 66.0039 57.4453 66.4219 57.6328C66.8438 57.8203 67.2051 58.0938 67.5059 58.4531C67.8105 58.8086 68.043 59.2402 68.2031 59.748C68.3672 60.252 68.4492 60.8242 68.4492 61.4648ZM67.3301 62.0039V61.4531C67.3301 60.9453 67.2773 60.4961 67.1719 60.1055C67.0703 59.7148 66.9199 59.3867 66.7207 59.1211C66.5215 58.8555 66.2773 58.6543 65.9883 58.5176C65.7031 58.3809 65.3789 58.3125 65.0156 58.3125C64.6641 58.3125 64.3457 58.3809 64.0605 58.5176C63.7793 58.6543 63.5371 58.8555 63.334 59.1211C63.1348 59.3867 62.9805 59.7148 62.8711 60.1055C62.7617 60.4961 62.707 60.9453 62.707 61.4531V62.0039C62.707 62.5156 62.7617 62.9688 62.8711 63.3633C62.9805 63.7539 63.1367 64.084 63.3398 64.3535C63.5469 64.6191 63.791 64.8203 64.0723 64.957C64.3574 65.0938 64.6758 65.1621 65.0273 65.1621C65.3945 65.1621 65.7207 65.0938 66.0059 64.957C66.291 64.8203 66.5312 64.6191 66.7266 64.3535C66.9258 64.084 67.0762 63.7539 67.1777 63.3633C67.2793 62.9688 67.3301 62.5156 67.3301 62.0039ZM70.1426 57.4688H72.9668C73.6074 57.4688 74.1484 57.5664 74.5898 57.7617C75.0352 57.957 75.373 58.2461 75.6035 58.6289C75.8379 59.0078 75.9551 59.4746 75.9551 60.0293C75.9551 60.4199 75.875 60.7773 75.7148 61.1016C75.5586 61.4219 75.332 61.6953 75.0352 61.9219C74.7422 62.1445 74.3906 62.3105 73.9805 62.4199L73.6641 62.543H71.0098L70.998 61.623H73.002C73.4082 61.623 73.7461 61.5527 74.0156 61.4121C74.2852 61.2676 74.4883 61.0742 74.625 60.832C74.7617 60.5898 74.8301 60.3223 74.8301 60.0293C74.8301 59.7012 74.7656 59.4141 74.6367 59.168C74.5078 58.9219 74.3047 58.7324 74.0273 58.5996C73.7539 58.4629 73.4004 58.3945 72.9668 58.3945H71.2734V66H70.1426V57.4688ZM75.1289 66L73.0547 62.1328L74.2324 62.127L76.3359 65.9297V66H75.1289ZM79.8457 66H78.0645L78.0762 65.0801H79.8457C80.4551 65.0801 80.9629 64.9531 81.3691 64.6992C81.7754 64.4414 82.0801 64.082 82.2832 63.6211C82.4902 63.1562 82.5938 62.6133 82.5938 61.9922V61.4707C82.5938 60.9824 82.5352 60.5488 82.418 60.1699C82.3008 59.7871 82.1289 59.4648 81.9023 59.2031C81.6758 58.9375 81.3984 58.7363 81.0703 58.5996C80.7461 58.4629 80.373 58.3945 79.9512 58.3945H78.0293V57.4688H79.9512C80.5098 57.4688 81.0195 57.5625 81.4805 57.75C81.9414 57.9336 82.3379 58.2012 82.6699 58.5527C83.0059 58.9004 83.2637 59.3223 83.4434 59.8184C83.623 60.3105 83.7129 60.8652 83.7129 61.4824V61.9922C83.7129 62.6094 83.623 63.166 83.4434 63.6621C83.2637 64.1543 83.0039 64.5742 82.6641 64.9219C82.3281 65.2695 81.9219 65.5371 81.4453 65.7246C80.9727 65.9082 80.4395 66 79.8457 66ZM78.668 57.4688V66H77.5371V57.4688H78.668ZM90.832 65.0801V66H86.3145V65.0801H90.832ZM86.543 57.4688V66H85.4121V57.4688H86.543ZM90.2344 61.1367V62.0566H86.3145V61.1367H90.2344ZM90.7734 57.4688V58.3945H86.3145V57.4688H90.7734ZM92.2324 57.4688H95.0566C95.6973 57.4688 96.2383 57.5664 96.6797 57.7617C97.125 57.957 97.4629 58.2461 97.6934 58.6289C97.9277 59.0078 98.0449 59.4746 98.0449 60.0293C98.0449 60.4199 97.9648 60.7773 97.8047 61.1016C97.6484 61.4219 97.4219 61.6953 97.125 61.9219C96.832 62.1445 96.4805 62.3105 96.0703 62.4199L95.7539 62.543H93.0996L93.0879 61.623H95.0918C95.498 61.623 95.8359 61.5527 96.1055 61.4121C96.375 61.2676 96.5781 61.0742 96.7148 60.832C96.8516 60.5898 96.9199 60.3223 96.9199 60.0293C96.9199 59.7012 96.8555 59.4141 96.7266 59.168C96.5977 58.9219 96.3945 58.7324 96.1172 58.5996C95.8438 58.4629 95.4902 58.3945 95.0566 58.3945H93.3633V66H92.2324V57.4688ZM97.2188 66L95.1445 62.1328L96.3223 62.127L98.4258 65.9297V66H97.2188Z" fill="white"/>
</svg>
