<svg width="30" height="26" viewBox="0 0 30 26" fill="none" xmlns="http://www.w3.org/2000/svg">
<path d="M12.4204 4.09037C13.2217 2.66131 14.1313 1.55252 14.9763 1C15.8318 1.56189 16.7557 2.68566 17.5655 4.14469" stroke="#0F0D0E" stroke-linecap="round" stroke-linejoin="round"/>
<path d="M15.0047 16.1895C14.9608 15.5836 14.9716 14.975 15.037 14.3709C15.5122 9.75693 19.3751 6.95034 16.7479 1.00098C18.8552 1.57316 20.7999 3.2485 22.1487 5.51662" stroke="#0F0D0E" stroke-linecap="round" stroke-linejoin="round"/>
<path d="M14.9797 16.1081C15.0162 15.529 15.0035 14.9479 14.9416 14.3709C14.4711 9.75694 10.6025 6.95035 13.2307 1.00098C11.1396 1.56754 9.21575 3.21853 7.86792 5.45294" stroke="#0F0D0E" stroke-linecap="round" stroke-linejoin="round"/>
<path d="M15.0127 16.5359C15.1077 15.7277 15.3929 14.8128 15.9461 13.7836C18.0819 9.82326 22.8944 8.79407 22.479 2.44385C24.3486 3.77551 25.6508 6.04552 26.147 8.61614" stroke="#0F0D0E" stroke-linecap="round" stroke-linejoin="round"/>
<path d="M14.9775 17.801C15.1305 16.725 14.9243 15.3934 14.0565 13.7836C11.9197 9.82324 7.10726 8.79406 7.52264 2.44385C5.7005 3.7418 4.41636 5.9322 3.89453 8.42228" stroke="#0F0D0E" stroke-linecap="round" stroke-linejoin="round"/>
<path d="M16.5332 23.2282C15.3926 22.1466 13.4916 19.0618 17.2128 15.3562C20.5396 12.043 25.6401 12.4335 27.1504 5.99146C30.1978 9.91154 29.5353 17.1926 24.7409 21.3627C20.5263 25.0281 17.8896 24.5187 16.5332 23.2282Z" stroke="#0F0D0E" stroke-linecap="round" stroke-linejoin="round"/>
<path d="M13.4661 23.2282C14.6067 22.1466 16.5078 19.0618 12.7875 15.3562C9.46067 12.043 4.35926 12.4335 2.84985 5.99146C-0.198447 9.91154 0.464063 17.1926 5.25845 21.3627C9.47398 25.0281 12.1126 24.5187 13.4661 23.2282Z" stroke="#0F0D0E" stroke-linecap="round" stroke-linejoin="round"/>
<path d="M15.0264 25.0001V14.7981" stroke="#0F0D0E" stroke-linecap="round" stroke-linejoin="round"/>
</svg>
