<svg width="17" height="24" viewBox="0 0 17 24" fill="none" xmlns="http://www.w3.org/2000/svg">
<path d="M0.57678 15.3815V15.3585L0.574675 15.3357C-0.00358546 9.05307 2.87524 5.15612 5.89799 2.93268C7.41684 1.81546 8.96982 1.12409 10.1319 0.775137C10.5967 0.635541 10.9868 0.554456 11.2789 0.519899C11.1916 0.629917 11.0872 0.753795 10.9663 0.897185L10.9485 0.918346C10.5678 1.36981 10.0654 1.96872 9.72645 2.67802C9.38133 3.4003 9.19388 4.26061 9.46575 5.22312C9.73454 6.17469 10.4325 7.15537 11.712 8.16895C13.9592 9.9492 15.1364 11.0418 15.769 12.0375C16.3758 12.9927 16.4999 13.889 16.5 15.3815C16.5 19.8739 12.9268 23.5 8.53839 23.5C4.14994 23.5 0.57678 19.8739 0.57678 15.3815Z" stroke="#0F0D0E"/>
<path d="M4.46398 17.3323V17.357C4.46398 19.4349 6.25341 21.1662 8.52023 21.1662C10.7871 21.1662 12.5765 19.4349 12.5765 17.357L4.46398 17.3323ZM4.46398 17.3323L4.46154 17.3077M4.46398 17.3323L4.46154 17.3077M4.46154 17.3077C4.15298 14.1947 5.08338 12.0173 6.06593 10.685C6.53253 10.0523 7.00919 9.6127 7.36815 9.35482C7.46009 10.4134 7.91223 12.3482 10.1 13.9575C11.315 14.8513 11.9149 15.3753 12.2282 15.8333M4.46154 17.3077L12.2282 15.8333M12.2282 15.8333C12.5107 16.2462 12.5764 16.629 12.5765 17.357L12.2282 15.8333ZM7.81506 9.10208C7.81497 9.10224 7.81228 9.103 7.80729 9.10387C7.81266 9.10235 7.81516 9.10192 7.81506 9.10208Z" stroke="#0F0D0E"/>
</svg>
