<svg width="24" height="26" viewBox="0 0 24 26" fill="none" xmlns="http://www.w3.org/2000/svg">
<path fill-rule="evenodd" clip-rule="evenodd" d="M6.31395 26H0L5.61192 4.04978C5.96948 2.5746 6.68459 1.51366 7.73547 0.883852C8.78634 0.254046 10.2078 -0.0122493 11.9738 0.000431305C13.7398 0.013112 15.1875 0.2625 16.2384 0.883852C17.2892 1.5052 17.9826 2.5746 18.3532 4.04978L24 26H17.6512C16.0552 19.182 14.4985 12.4486 12.8895 5.61796C12.8571 5.4356 12.7725 5.26572 12.6453 5.12764C12.4483 4.99796 12.2111 4.93823 11.9738 4.95857C11.7417 4.93441 11.5086 4.99466 11.3198 5.12764C11.1876 5.26241 11.1023 5.43384 11.0756 5.61796L6.31395 26Z" fill="white"/>
<path fill-rule="evenodd" clip-rule="evenodd" d="M12.0063 16.4381C12.5574 16.4339 13.0974 16.5885 13.5577 16.8823C14.0181 17.1761 14.3781 17.5958 14.592 18.0882C14.8059 18.5805 14.8641 19.1234 14.7592 19.6479C14.6544 20.1724 14.3911 20.6549 14.0029 21.0342C13.6148 21.4134 13.1191 21.6724 12.5789 21.7782C12.0386 21.884 11.4782 21.8318 10.9686 21.6283C10.4589 21.4248 10.0232 21.0792 9.7165 20.6353C9.40984 20.1914 9.24611 19.6692 9.24609 19.1349C9.24607 18.4233 9.53618 17.7406 10.0532 17.2354C10.5702 16.7303 11.2722 16.4437 12.0063 16.4381Z" fill="white"/>
</svg>
