<svg width="14" height="14" viewBox="0 0 14 14" fill="none" xmlns="http://www.w3.org/2000/svg">
<circle cx="7" cy="7" r="6.5" stroke="#9F9E9F"/>
<path d="M6.46667 8.51532C6.46667 8.13649 6.50222 7.82451 6.57333 7.57939C6.64444 7.32683 6.73037 7.11513 6.83111 6.94429C6.93778 6.76602 7.05037 6.61746 7.16889 6.49861C7.29333 6.37976 7.40593 6.26462 7.50667 6.1532C7.61333 6.03435 7.70222 5.90436 7.77333 5.76323C7.84444 5.61467 7.88 5.43268 7.88 5.21727C7.88 4.92015 7.80593 4.68617 7.65778 4.51532C7.51556 4.33705 7.31111 4.24791 7.04444 4.24791C6.76593 4.24791 6.54667 4.34448 6.38667 4.5376C6.23259 4.73073 6.1437 4.99443 6.12 5.32869H5C5.01185 4.987 5.06519 4.67502 5.16 4.39276C5.26074 4.11049 5.39704 3.86537 5.56889 3.65738C5.74667 3.4494 5.95407 3.28969 6.19111 3.17827C6.43407 3.05942 6.7037 3 7 3C7.32593 3 7.61333 3.052 7.86222 3.15599C8.11111 3.25998 8.31852 3.40483 8.48444 3.59053C8.6563 3.77623 8.7837 3.99907 8.86667 4.25905C8.95556 4.51161 9 4.79387 9 5.10585C9 5.42526 8.96444 5.69266 8.89333 5.90808C8.82222 6.12349 8.73037 6.31291 8.61778 6.47632C8.51111 6.63231 8.39259 6.77344 8.26222 6.89972C8.13778 7.026 8.01926 7.16342 7.90667 7.31198C7.8 7.46054 7.71111 7.62767 7.64 7.81337C7.56889 7.99907 7.53333 8.23306 7.53333 8.51532H6.46667ZM7 11C6.79259 11 6.62074 10.9146 6.48444 10.7437C6.35407 10.5655 6.28889 10.3538 6.28889 10.1086C6.28889 9.86351 6.35407 9.65552 6.48444 9.48468C6.62074 9.30641 6.79259 9.21727 7 9.21727C7.20741 9.21727 7.3763 9.30641 7.50667 9.48468C7.64296 9.65552 7.71111 9.86351 7.71111 10.1086C7.71111 10.3538 7.64296 10.5655 7.50667 10.7437C7.3763 10.9146 7.20741 11 7 11Z" fill="#9F9E9F"/>
</svg>
