<svg width="1488" height="151" viewBox="0 0 1488 151" fill="none" xmlns="http://www.w3.org/2000/svg">
<g filter="url(#filter0_d_104_123)">
<path d="M53.7862 0H81.6664L131.453 141H105.962L94.4117 105.75H39.6469L27.8974 141H4L53.7862 0ZM87.2425 83.5928L67.5271 23.1643H67.1289L47.0152 83.5928H87.2425Z" fill="white"/>
<path d="M147.415 0H181.27L236.632 106.757H237.03V0H260.928V141H229.065L171.711 30.2143H171.313V141H147.415V0Z" fill="white"/>
<path d="M320.663 22.1571H277.847V0H387.377V22.1571H344.561V141H320.663V22.1571Z" fill="white"/>
<path d="M449.034 93.6642L396.26 0H423.344L461.58 68.6871L495.833 0H521.722L472.931 93.6642V141H449.034V93.6642Z" fill="white"/>
<path d="M537.731 0H571.586L626.948 106.757H627.346V0H651.243V141H619.38L562.027 30.2143H561.628V141H537.731V0Z" fill="white"/>
<path d="M679.116 0H768.731V22.1571H703.013V57.4071H756.782V79.5642H703.013V118.843H768.731V141H679.116V0Z" fill="white"/>
<path d="M830.334 0H858.214L908 141H882.509L870.959 105.75H816.194L804.445 141H780.547L830.334 0ZM863.79 83.5928L844.075 23.1643H843.676L823.563 83.5928H863.79Z" fill="white"/>
<path d="M980.996 1.98611H1070.62V23.8333H1004.9V60.5764H1058.67V82.4236H1004.9V141.014H980.996V1.98611Z" fill="white"/>
<path d="M1142.4 143C1132.98 143 1124.48 141.543 1116.91 138.63C1109.34 135.585 1102.83 131.216 1097.39 125.522C1092.08 119.696 1087.96 112.546 1085.04 104.072C1082.12 95.4657 1080.66 85.6675 1080.66 74.6777V66.3361C1080.66 55.8759 1082.12 46.5412 1085.04 38.3319C1087.96 30.1227 1092.08 23.1713 1097.39 17.4778C1102.83 11.7843 1109.34 7.48102 1116.91 4.56805C1124.61 1.52268 1133.11 0 1142.4 0C1151.7 0 1160.13 1.52268 1167.7 4.56805C1175.4 7.48102 1181.9 11.7843 1187.22 17.4778C1192.66 23.0389 1196.84 29.9903 1199.76 38.3319C1202.68 46.5412 1204.15 55.8759 1204.15 66.3361V74.6777C1204.15 85.6675 1202.68 95.3995 1199.76 103.874C1196.84 112.348 1192.66 119.498 1187.22 125.324C1181.9 131.149 1175.4 135.585 1167.7 138.63C1160.13 141.543 1151.7 143 1142.4 143ZM1142.4 121.153C1153.42 121.153 1162.25 117.445 1168.89 110.03C1175.66 102.616 1179.05 90.8314 1179.05 74.6777V66.3361C1179.05 51.5065 1175.66 40.3842 1168.89 32.9694C1162.12 25.5546 1153.29 21.8472 1142.4 21.8472C1131.25 21.8472 1122.35 25.4884 1115.71 32.7708C1109.07 40.0532 1105.75 51.2416 1105.75 66.3361V74.6777C1105.75 90.5666 1109.07 102.285 1115.71 109.832C1122.49 117.379 1131.38 121.153 1142.4 121.153Z" fill="white"/>
<path d="M1227.04 1.98611H1275.84C1293.9 1.98611 1307.18 5.89213 1315.67 13.7042C1324.3 21.5162 1328.62 32.1088 1328.62 45.4819C1328.62 54.618 1326.49 62.5625 1322.25 69.3152C1318 75.9356 1311.56 80.9671 1302.93 84.4097L1332.6 141.014H1305.91L1280.42 88.7791C1278.96 88.9115 1278.03 88.9777 1277.63 88.9777C1277.23 88.9777 1276.64 88.9777 1275.84 88.9777H1250.94V141.014H1227.04V1.98611ZM1274.84 67.1305C1285.07 67.1305 1292.37 65.2106 1296.75 61.3708C1301.27 57.531 1303.52 52.2347 1303.52 45.4819C1303.52 39.1264 1301.2 33.9625 1296.55 29.9903C1291.91 25.8856 1284.67 23.8333 1274.84 23.8333H1250.94V67.1305H1274.84Z" fill="white"/>
<path d="M1350.55 1.98611H1386.8L1417.87 79.0472H1418.27L1449.34 1.98611H1484V141.014H1460.1V28.7986H1459.7L1429.22 104.271H1405.32L1374.85 28.7986H1374.45V141.014H1350.55V1.98611Z" fill="white"/>
</g>
<defs>
<filter id="filter0_d_104_123" x="0" y="0" width="1488" height="151" filterUnits="userSpaceOnUse" color-interpolation-filters="sRGB">
<feFlood flood-opacity="0" result="BackgroundImageFix"/>
<feColorMatrix in="SourceAlpha" type="matrix" values="0 0 0 0 0 0 0 0 0 0 0 0 0 0 0 0 0 0 127 0" result="hardAlpha"/>
<feOffset dy="4"/>
<feGaussianBlur stdDeviation="2"/>
<feComposite in2="hardAlpha" operator="out"/>
<feColorMatrix type="matrix" values="0 0 0 0 0 0 0 0 0 0 0 0 0 0 0 0 0 0 0.25 0"/>
<feBlend mode="normal" in2="BackgroundImageFix" result="effect1_dropShadow_104_123"/>
<feBlend mode="normal" in="SourceGraphic" in2="effect1_dropShadow_104_123" result="shape"/>
</filter>
</defs>
</svg>
