<svg width="42" height="54" viewBox="0 0 42 54" fill="none" xmlns="http://www.w3.org/2000/svg">
<path d="M21.0007 53.25C17.3167 50.1076 13.9021 46.6627 10.7923 42.9512C6.12565 37.3775 0.583987 29.0767 0.583987 21.1667C0.581963 17.127 1.77839 13.1775 4.02184 9.81798C6.2653 6.4585 9.45494 3.84007 13.1871 2.29406C16.9193 0.748049 21.0262 0.343955 24.9881 1.13292C28.95 1.92188 32.5888 3.86843 35.444 6.72623C37.3449 8.61874 38.8517 10.8695 39.877 13.3482C40.9023 15.8268 41.4259 18.4843 41.4173 21.1667C41.4173 29.0767 35.8757 37.3775 31.209 42.9512C28.0993 46.6627 24.6846 50.1076 21.0007 53.25ZM21.0007 12.4167C18.68 12.4167 16.4544 13.3385 14.8135 14.9795C13.1725 16.6204 12.2507 18.846 12.2507 21.1667C12.2507 23.4873 13.1725 25.7129 14.8135 27.3538C16.4544 28.9948 18.68 29.9167 21.0007 29.9167C23.3213 29.9167 25.5469 28.9948 27.1878 27.3538C28.8288 25.7129 29.7507 23.4873 29.7507 21.1667C29.7507 18.846 28.8288 16.6204 27.1878 14.9795C25.5469 13.3385 23.3213 12.4167 21.0007 12.4167Z" fill="#0E0D15"/>
</svg>
