<svg width="120" height="120" viewBox="0 0 120 120" fill="none" xmlns="http://www.w3.org/2000/svg">
<circle cx="60" cy="60" r="60" fill="#0F0D0E"/>
<path d="M34.9145 64.12C33.8985 64.12 33.1305 63.872 32.6105 63.376C32.0905 62.872 31.7985 62.16 31.7345 61.24H33.2465C33.3105 61.768 33.4705 62.16 33.7265 62.416C33.9905 62.672 34.3865 62.8 34.9145 62.8C35.4425 62.8 35.8305 62.688 36.0785 62.464C36.3345 62.232 36.4625 61.924 36.4625 61.54C36.4625 61.172 36.3345 60.876 36.0785 60.652C35.8305 60.428 35.4425 60.316 34.9145 60.316H33.8945V59.044H34.9145C35.3945 59.044 35.7425 58.948 35.9585 58.756C36.1745 58.556 36.2825 58.284 36.2825 57.94C36.2825 57.58 36.1745 57.3 35.9585 57.1C35.7425 56.9 35.3945 56.8 34.9145 56.8C34.4345 56.8 34.0825 56.912 33.8585 57.136C33.6345 57.36 33.4905 57.728 33.4265 58.24H31.9145C31.9785 57.352 32.2585 56.672 32.7545 56.2C33.2505 55.72 33.9705 55.48 34.9145 55.48C35.3865 55.48 35.8025 55.54 36.1625 55.66C36.5225 55.772 36.8225 55.936 37.0625 56.152C37.3025 56.36 37.4825 56.608 37.6025 56.896C37.7305 57.176 37.7945 57.484 37.7945 57.82C37.7945 58.644 37.4545 59.252 36.7745 59.644V59.668C37.5745 60.092 37.9745 60.756 37.9745 61.66C37.9745 62.012 37.9105 62.34 37.7825 62.644C37.6545 62.94 37.4585 63.2 37.1945 63.424C36.9385 63.64 36.6185 63.812 36.2345 63.94C35.8585 64.06 35.4185 64.12 34.9145 64.12ZM41.454 55.6H43.134L46.134 64H44.598L43.902 61.9H40.602L39.894 64H38.454L41.454 55.6ZM43.47 60.58L42.282 56.98H42.258L41.046 60.58H43.47ZM47.0959 55.6H48.5359V59.02H49.3759L51.7999 55.6H53.4559L50.5159 59.608L53.6959 64H51.9439L49.3759 60.34H48.5359V64H47.0959V55.6ZM57.1102 55.6H58.7902L61.7902 64H60.2542L59.5582 61.9H56.2582L55.5502 64H54.1102L57.1102 55.6ZM59.1262 60.58L57.9382 56.98H57.9142L56.7022 60.58H59.1262ZM65.1488 64.12C64.1328 64.12 63.3648 63.872 62.8448 63.376C62.3248 62.872 62.0328 62.16 61.9688 61.24H63.4808C63.5448 61.768 63.7048 62.16 63.9608 62.416C64.2248 62.672 64.6208 62.8 65.1488 62.8C65.6768 62.8 66.0648 62.688 66.3128 62.464C66.5688 62.232 66.6968 61.924 66.6968 61.54C66.6968 61.172 66.5688 60.876 66.3128 60.652C66.0648 60.428 65.6768 60.316 65.1488 60.316H64.1288V59.044H65.1488C65.6288 59.044 65.9768 58.948 66.1928 58.756C66.4088 58.556 66.5168 58.284 66.5168 57.94C66.5168 57.58 66.4088 57.3 66.1928 57.1C65.9768 56.9 65.6288 56.8 65.1488 56.8C64.6688 56.8 64.3168 56.912 64.0928 57.136C63.8688 57.36 63.7248 57.728 63.6608 58.24H62.1488C62.2128 57.352 62.4928 56.672 62.9888 56.2C63.4848 55.72 64.2048 55.48 65.1488 55.48C65.6208 55.48 66.0368 55.54 66.3968 55.66C66.7568 55.772 67.0568 55.936 67.2968 56.152C67.5368 56.36 67.7168 56.608 67.8368 56.896C67.9648 57.176 68.0288 57.484 68.0288 57.82C68.0288 58.644 67.6888 59.252 67.0088 59.644V59.668C67.8088 60.092 68.2088 60.756 68.2088 61.66C68.2088 62.012 68.1448 62.34 68.0168 62.644C67.8888 62.94 67.6928 63.2 67.4288 63.424C67.1728 63.64 66.8528 63.812 66.4688 63.94C66.0928 64.06 65.6528 64.12 65.1488 64.12ZM71.6884 55.6H73.3684L76.3684 64H74.8324L74.1364 61.9H70.8364L70.1284 64H68.6884L71.6884 55.6ZM73.7044 60.58L72.5164 56.98H72.4924L71.2804 60.58H73.7044ZM78.2893 56.92H75.7093V55.6H82.3093V56.92H79.7293V64H78.2893V56.92ZM83.3302 55.6H84.7702V58.432H86.2702C87.3582 58.432 88.1582 58.676 88.6702 59.164C89.1902 59.644 89.4502 60.332 89.4502 61.228C89.4502 62.1 89.1902 62.78 88.6702 63.268C88.1502 63.756 87.3502 64 86.2702 64H83.3302V55.6ZM86.2102 62.68C86.8102 62.68 87.2462 62.556 87.5182 62.308C87.7982 62.052 87.9382 61.692 87.9382 61.228C87.9382 60.764 87.7982 60.404 87.5182 60.148C87.2382 59.884 86.8022 59.752 86.2102 59.752H84.7702V62.68H86.2102Z" fill="white"/>
</svg>
