<svg width="80" height="80" viewBox="0 0 80 80" fill="none" xmlns="http://www.w3.org/2000/svg">
<path fill-rule="evenodd" clip-rule="evenodd" d="M40 79C61.5391 79 79 61.5391 79 40C79 18.4609 61.5391 1 40 1C18.4609 1 1 18.4609 1 40C1 61.5391 18.4609 79 40 79ZM40 80C62.0914 80 80 62.0914 80 40C80 17.9086 62.0914 0 40 0C17.9086 0 0 17.9086 0 40C0 62.0914 17.9086 80 40 80Z" fill="white"/>
<path d="M54.5 39.1338C55.1667 39.5187 55.1667 40.481 54.5 40.8659L33.5 52.9903C32.8333 53.3752 32 52.894 32 52.1242L32 27.8755C32 27.1057 32.8333 26.6246 33.5 27.0095L54.5 39.1338Z" fill="white"/>
</svg>
