<svg width="18" height="18" viewBox="0 0 18 18" fill="none" xmlns="http://www.w3.org/2000/svg">
<path d="M1.32918 4.39443L8.32918 0.894427C8.75147 0.683281 9.24853 0.683281 9.67082 0.894427L16.6708 4.39443C17.179 4.64852 17.5 5.16791 17.5 5.73607V12.2639C17.5 12.8321 17.179 13.3515 16.6708 13.6056L9.67082 17.1056C9.24853 17.3167 8.75147 17.3167 8.32918 17.1056L1.32918 13.6056C0.821002 13.3515 0.5 12.8321 0.5 12.2639V5.73607C0.5 5.16791 0.821004 4.64852 1.32918 4.39443Z" stroke="#0F0D0E" stroke-linecap="round"/>
<path d="M9 17.2501V8.75012" stroke="#0F0D0E" stroke-linecap="round"/>
<path d="M1.00073 5L8.15574 8.35206C8.6936 8.60404 9.31562 8.60392 9.85339 8.35174L17.0007 5" stroke="#0F0D0E" stroke-linecap="round"/>
</svg>
