<svg width="18" height="18" viewBox="0 0 18 18" fill="none" xmlns="http://www.w3.org/2000/svg">
<path d="M14.8462 15.1703C13.5364 16.4113 11.8657 17.2033 10.0758 17.4316C8.28602 17.66 6.46996 17.3129 4.89051 16.4406C3.31107 15.5682 2.05019 14.2159 1.29039 12.5794C0.530578 10.9428 0.311261 9.10693 0.664179 7.33744C1.0171 5.56796 1.92394 3.95669 3.25345 2.73684C4.58296 1.517 6.26615 0.751867 8.0594 0.552203C9.85266 0.352538 11.6629 0.728697 13.2282 1.62623C14.7935 2.52377 16.0325 3.89612 16.766 5.54464" stroke="#0F0D0E" stroke-linecap="round"/>
<path d="M5.00569 13.477C4.03849 12.6141 3.37672 11.4612 3.11941 10.1908C2.86211 8.92048 3.0231 7.60095 3.57829 6.42972C4.13349 5.25849 5.05303 4.29853 6.19932 3.69351C7.34561 3.08849 8.657 2.87094 9.93725 3.07341C11.2175 3.27588 12.3978 3.88749 13.3014 4.81671C14.2051 5.74592 14.7835 6.94279 14.9502 8.22818C15.1169 9.51358 14.8628 10.8184 14.2261 11.9474C13.5893 13.0763 12.6041 13.9687 11.4178 14.491" stroke="#0F0D0E" stroke-linecap="round"/>
<path d="M12.4883 9.33759C12.4181 10.0624 12.1235 10.7472 11.6457 11.2967C11.1679 11.8462 10.5306 12.2329 9.82255 12.4031C9.11454 12.5733 8.37108 12.5184 7.69574 12.246C7.02039 11.9737 6.4468 11.4975 6.05487 10.8838C5.66293 10.2701 5.47217 9.54947 5.50916 8.82223C5.54614 8.095 5.80903 7.3974 6.2612 6.82663C6.71337 6.25585 7.33231 5.84032 8.0318 5.63792C8.73128 5.43552 9.47648 5.45633 10.1636 5.69745" stroke="#0F0D0E" stroke-linecap="round"/>
</svg>
